<svg width="38" height="53" viewBox="0 0 38 53" fill="none" xmlns="http://www.w3.org/2000/svg">
<path d="M2 34.0002H7.0894C7.71415 34.0002 8.33041 34.1404 8.88928 34.4124L13.2286 36.5119C13.7874 36.7818 14.4037 36.9221 15.0306 36.9221H17.2448C19.3868 36.9221 21.1251 38.603 21.1251 40.677C21.1251 40.762 21.0677 40.8342 20.9848 40.8576L15.5852 42.3515C14.6163 42.6191 13.5831 42.5255 12.6782 42.088L8.03928 39.844" stroke="white" stroke-width="3.18752" stroke-linecap="round" stroke-linejoin="round"/>
<path d="M21.1251 39.3127L30.8853 36.3143C31.735 36.0536 32.6453 36.0679 33.4864 36.3553C34.3274 36.6426 35.0562 37.1883 35.5688 37.9144C36.3529 38.9982 36.0342 40.5537 34.8909 41.2125L18.9214 50.4286C18.4221 50.7175 17.8692 50.9018 17.2963 50.9701C16.7235 51.0384 16.1427 50.9894 15.5894 50.826L1.99998 46.7927" stroke="white" stroke-width="3.18752" stroke-linecap="round" stroke-linejoin="round"/>
<rect x="6.50001" y="1.50001" width="24.0001" height="24.0001" rx="2.50001" stroke="white" stroke-width="3.00002"/>
<path d="M14.5 0H22.5001V9.00005C22.5001 9.82848 21.8285 10.5001 21 10.5001H16C15.1716 10.5001 14.5 9.82848 14.5 9.00004V0Z" fill="white"/>
</svg>
