<svg width="59" height="59" viewBox="0 0 59 59" fill="none" xmlns="http://www.w3.org/2000/svg">
<circle cx="29.0797" cy="29.0797" r="28.3873" fill="#0D0D0D" stroke="white" stroke-width="1.38475"/>
<path d="M18.3109 31.629C17.1991 29.8082 16.6128 27.7152 16.6172 25.5818C16.6172 19.1004 21.925 13.8475 28.4716 13.8475C35.0181 13.8475 40.3259 19.1004 40.3259 25.5818C40.3303 27.7152 39.7441 29.8082 38.6322 31.629M32.9169 39.038L32.7243 39.9967C32.5169 41.0443 32.4116 41.5674 32.176 41.9823C31.813 42.6218 31.2252 43.1034 30.5268 43.3337C30.0749 43.4833 29.5385 43.4833 28.4716 43.4833C27.4047 43.4833 26.8683 43.4833 26.4163 43.3352C25.7177 43.1045 25.1298 42.6223 24.7671 41.9823C24.5315 41.5674 24.4263 41.0443 24.2188 39.9967L24.0262 39.038M21.6301 36.2196C21.4938 35.8106 21.4256 35.6046 21.433 35.4387C21.4414 35.2671 21.4993 35.1016 21.5998 34.9622C21.7003 34.8228 21.8389 34.7156 21.9991 34.6533C22.1532 34.5926 22.3695 34.5926 22.7993 34.5926H34.1439C34.5751 34.5926 34.7899 34.5926 34.944 34.6519C35.1044 34.7142 35.2432 34.8217 35.3437 34.9613C35.4442 35.101 35.502 35.2668 35.5101 35.4387C35.5175 35.6046 35.4493 35.8091 35.313 36.2196C35.0611 36.9768 34.9351 37.3561 34.741 37.6629C34.335 38.3039 33.6986 38.7648 32.9629 38.9505C32.6102 39.038 32.2131 39.038 31.4174 39.038H25.5258C24.73 39.038 24.3314 39.038 23.9802 38.9491C23.2448 38.7637 22.6084 38.3033 22.2021 37.6629C22.008 37.3561 21.882 36.9768 21.6301 36.2196Z" stroke="white" stroke-width="1.93057" stroke-linecap="round" stroke-linejoin="round"/>
<path d="M24.0444 21.5975C23.6245 21.5235 23.6245 20.9081 24.0444 20.8342C24.7912 20.7024 25.4824 20.3473 26.0298 19.8141C26.5772 19.281 26.956 18.594 27.1177 17.8409L27.1424 17.7223C27.2344 17.2994 27.8271 17.2966 27.9218 17.7195L27.9533 17.8562C28.1212 18.6054 28.503 19.2873 29.0508 19.8164C29.5986 20.3455 30.2879 20.6981 31.0322 20.83C31.4561 20.9053 31.4561 21.5235 31.0322 21.5975C30.2879 21.7293 29.5986 22.0819 29.0508 22.611C28.503 23.1401 28.1212 23.8221 27.9533 24.5712L27.9218 24.7094C27.8271 25.1322 27.2344 25.128 27.1424 24.7052L27.1177 24.588C26.9559 23.8355 26.5775 23.1491 26.0306 22.6162C25.4837 22.0834 24.7932 21.7282 24.0471 21.5961L24.0444 21.5975Z" fill="#FFDB58"/>
<path d="M28.999 29.0648C28.7471 29.0204 28.7471 28.6512 28.999 28.6068C29.4471 28.5278 29.8618 28.3147 30.1902 27.9948C30.5187 27.6749 30.746 27.2627 30.843 26.8109L30.8578 26.7397C30.913 26.486 31.2686 26.4843 31.3254 26.738L31.3444 26.8201C31.4451 27.2696 31.6742 27.6787 32.0028 27.9962C32.3315 28.3137 32.7451 28.5252 33.1917 28.6043C33.446 28.6495 33.446 29.0204 33.1917 29.0648C32.7451 29.1439 32.3315 29.3555 32.0028 29.6729C31.6742 29.9904 31.4451 30.3996 31.3444 30.8491L31.3254 30.932C31.2686 31.1857 30.913 31.1831 30.8578 30.9294L30.843 30.8591C30.7459 30.4076 30.5188 29.9958 30.1907 29.6761C29.8626 29.3564 29.4483 29.1433 29.0006 29.064L28.999 29.0648Z" fill="#FFDB58"/>
</svg>
