<svg width="21" height="21" viewBox="0 0 21 21" fill="none" xmlns="http://www.w3.org/2000/svg">
<rect width="21" height="21" rx="2" fill="#FFDB58"/>
<mask id="path-2-inside-1_340_286" fill="white">
<path d="M15.375 16.5H5.625C5.0025 16.5 4.5 15.9975 4.5 15.375V6.375C4.5 5.7525 5.0025 5.25 5.625 5.25H15.375C15.9975 5.25 16.5 5.7525 16.5 6.375V15.375C16.5 15.9975 15.9975 16.5 15.375 16.5ZM5.625 6C5.415 6 5.25 6.165 5.25 6.375V15.375C5.25 15.585 5.415 15.75 5.625 15.75H15.375C15.585 15.75 15.75 15.585 15.75 15.375V6.375C15.75 6.165 15.585 6 15.375 6H5.625Z"/>
</mask>
<path d="M15.375 16.5H5.625C5.0025 16.5 4.5 15.9975 4.5 15.375V6.375C4.5 5.7525 5.0025 5.25 5.625 5.25H15.375C15.9975 5.25 16.5 5.7525 16.5 6.375V15.375C16.5 15.9975 15.9975 16.5 15.375 16.5ZM5.625 6C5.415 6 5.25 6.165 5.25 6.375V15.375C5.25 15.585 5.415 15.75 5.625 15.75H15.375C15.585 15.75 15.75 15.585 15.75 15.375V6.375C15.75 6.165 15.585 6 15.375 6H5.625Z" fill="white"/>
<path d="M15.375 15.75H5.625V17.25H15.375V15.75ZM5.625 15.75C5.41671 15.75 5.25 15.5833 5.25 15.375H3.75C3.75 16.4117 4.58829 17.25 5.625 17.25V15.75ZM5.25 15.375V6.375H3.75V15.375H5.25ZM5.25 6.375C5.25 6.16671 5.41671 6 5.625 6V4.5C4.58829 4.5 3.75 5.33829 3.75 6.375H5.25ZM5.625 6H15.375V4.5H5.625V6ZM15.375 6C15.5833 6 15.75 6.16671 15.75 6.375H17.25C17.25 5.33829 16.4117 4.5 15.375 4.5V6ZM15.75 6.375V15.375H17.25V6.375H15.75ZM15.75 15.375C15.75 15.5833 15.5833 15.75 15.375 15.75V17.25C16.4117 17.25 17.25 16.4117 17.25 15.375H15.75ZM5.625 5.25C5.00079 5.25 4.5 5.75079 4.5 6.375H6C6 6.57921 5.82921 6.75 5.625 6.75V5.25ZM4.5 6.375V15.375H6V6.375H4.5ZM4.5 15.375C4.5 15.9992 5.00079 16.5 5.625 16.5V15C5.82921 15 6 15.1708 6 15.375H4.5ZM5.625 16.5H15.375V15H5.625V16.5ZM15.375 16.5C15.9992 16.5 16.5 15.9992 16.5 15.375H15C15 15.1708 15.1708 15 15.375 15V16.5ZM16.5 15.375V6.375H15V15.375H16.5ZM16.5 6.375C16.5 5.75079 15.9992 5.25 15.375 5.25V6.75C15.1708 6.75 15 6.57921 15 6.375H16.5ZM15.375 5.25H5.625V6.75H15.375V5.25Z" fill="#0D0D0D" mask="url(#path-2-inside-1_340_286)"/>
<mask id="path-4-inside-2_340_286" fill="white">
<path d="M7.875 7.5C7.665 7.5 7.5 7.335 7.5 7.125V4.875C7.5 4.665 7.665 4.5 7.875 4.5C8.085 4.5 8.25 4.665 8.25 4.875V7.125C8.25 7.335 8.085 7.5 7.875 7.5ZM13.125 7.5C12.915 7.5 12.75 7.335 12.75 7.125V4.875C12.75 4.665 12.915 4.5 13.125 4.5C13.335 4.5 13.5 4.665 13.5 4.875V7.125C13.5 7.335 13.335 7.5 13.125 7.5ZM16.125 9H4.875C4.665 9 4.5 8.835 4.5 8.625C4.5 8.415 4.665 8.25 4.875 8.25H16.125C16.335 8.25 16.5 8.415 16.5 8.625C16.5 8.835 16.335 9 16.125 9Z"/>
</mask>
<path d="M7.875 7.5C7.665 7.5 7.5 7.335 7.5 7.125V4.875C7.5 4.665 7.665 4.5 7.875 4.5C8.085 4.5 8.25 4.665 8.25 4.875V7.125C8.25 7.335 8.085 7.5 7.875 7.5ZM13.125 7.5C12.915 7.5 12.75 7.335 12.75 7.125V4.875C12.75 4.665 12.915 4.5 13.125 4.5C13.335 4.5 13.5 4.665 13.5 4.875V7.125C13.5 7.335 13.335 7.5 13.125 7.5ZM16.125 9H4.875C4.665 9 4.5 8.835 4.5 8.625C4.5 8.415 4.665 8.25 4.875 8.25H16.125C16.335 8.25 16.5 8.415 16.5 8.625C16.5 8.835 16.335 9 16.125 9Z" fill="white"/>
<path d="M7.875 6.75C8.07921 6.75 8.25 6.92079 8.25 7.125H6.75C6.75 7.74921 7.25079 8.25 7.875 8.25V6.75ZM8.25 7.125V4.875H6.75V7.125H8.25ZM8.25 4.875C8.25 5.07921 8.07921 5.25 7.875 5.25V3.75C7.25079 3.75 6.75 4.25079 6.75 4.875H8.25ZM7.875 5.25C7.67079 5.25 7.5 5.07921 7.5 4.875H9C9 4.25079 8.49921 3.75 7.875 3.75V5.25ZM7.5 4.875V7.125H9V4.875H7.5ZM7.5 7.125C7.5 6.92079 7.67079 6.75 7.875 6.75V8.25C8.49921 8.25 9 7.74921 9 7.125H7.5ZM13.125 6.75C13.3292 6.75 13.5 6.92079 13.5 7.125H12C12 7.74921 12.5008 8.25 13.125 8.25V6.75ZM13.5 7.125V4.875H12V7.125H13.5ZM13.5 4.875C13.5 5.07921 13.3292 5.25 13.125 5.25V3.75C12.5008 3.75 12 4.25079 12 4.875H13.5ZM13.125 5.25C12.9208 5.25 12.75 5.07921 12.75 4.875H14.25C14.25 4.25079 13.7492 3.75 13.125 3.75V5.25ZM12.75 4.875V7.125H14.25V4.875H12.75ZM12.75 7.125C12.75 6.92079 12.9208 6.75 13.125 6.75V8.25C13.7492 8.25 14.25 7.74921 14.25 7.125H12.75ZM16.125 8.25H4.875V9.75H16.125V8.25ZM4.875 8.25C5.07921 8.25 5.25 8.42079 5.25 8.625H3.75C3.75 9.24921 4.25079 9.75 4.875 9.75V8.25ZM5.25 8.625C5.25 8.82921 5.07921 9 4.875 9V7.5C4.25079 7.5 3.75 8.00079 3.75 8.625H5.25ZM4.875 9H16.125V7.5H4.875V9ZM16.125 9C15.9208 9 15.75 8.82921 15.75 8.625H17.25C17.25 8.00079 16.7492 7.5 16.125 7.5V9ZM15.75 8.625C15.75 8.42079 15.9208 8.25 16.125 8.25V9.75C16.7492 9.75 17.25 9.24921 17.25 8.625H15.75Z" fill="#0D0D0D" mask="url(#path-4-inside-2_340_286)"/>
</svg>
