<svg width="53" height="53" viewBox="0 0 53 53" fill="none" xmlns="http://www.w3.org/2000/svg">
<path d="M48.4661 24.988H40.4131V4.441C40.4131 3.26317 39.9452 2.13359 39.1123 1.30074C38.2795 0.467889 37.1499 0 35.9721 0H16.935C15.7572 0 14.6276 0.467889 13.7947 1.30074C12.9619 2.13359 12.494 3.26317 12.494 4.441V24.988H4.441C3.26317 24.988 2.13359 25.4559 1.30074 26.2887C0.467889 27.1216 0 28.2512 0 29.429V48.4957C0 49.6735 0.467889 50.8031 1.30074 51.6359C2.13359 52.4688 3.26317 52.9367 4.441 52.9367H23.4929C24.59 52.9387 25.6475 52.5263 26.4535 51.782C27.2642 52.5189 28.3187 52.9302 29.4142 52.9367H48.4809C49.6587 52.9367 50.7883 52.4688 51.6211 51.6359C52.454 50.8031 52.9219 49.6735 52.9219 48.4957V29.429C52.9219 28.8446 52.8065 28.2659 52.5824 27.7261C52.3583 27.1863 52.0299 26.6961 51.6159 26.2835C51.202 25.8709 50.7106 25.5441 50.1701 25.3218C49.6296 25.0995 49.0505 24.9861 48.4661 24.988ZM24.9732 48.4957C24.9732 48.8883 24.8172 49.2648 24.5396 49.5424C24.262 49.8201 23.8855 49.976 23.4929 49.976H4.441C4.04839 49.976 3.67186 49.8201 3.39424 49.5424C3.11663 49.2648 2.96066 48.8883 2.96066 48.4957V29.429C2.96066 29.0364 3.11663 28.6599 3.39424 28.3822C3.67186 28.1046 4.04839 27.9487 4.441 27.9487H10.2735V33.87C10.2735 34.2626 10.4295 34.6391 10.7071 34.9168C10.9847 35.1944 11.3612 35.3503 11.7538 35.3503H16.1948C16.5851 35.3428 16.9572 35.1844 17.2332 34.9084C17.5092 34.6324 17.6676 34.2602 17.6752 33.87V27.9487H24.9732V48.4957ZM15.4547 24.988V4.441C15.4547 4.04839 15.6106 3.67186 15.8882 3.39424C16.1659 3.11663 16.5424 2.96066 16.935 2.96066H22.7379V8.88199C22.7379 9.2746 22.8939 9.65113 23.1715 9.92875C23.4491 10.2064 23.8256 10.3623 24.2182 10.3623H28.6592C29.0518 10.3623 29.4284 10.2064 29.706 9.92875C29.9836 9.65113 30.1396 9.2746 30.1396 8.88199V2.96066H35.9721C36.3647 2.96066 36.7412 3.11663 37.0188 3.39424C37.2964 3.67186 37.4524 4.04839 37.4524 4.441V24.988H15.4547ZM49.9464 48.4957C49.9388 48.8859 49.7804 49.2581 49.5044 49.534C49.2285 49.81 48.8563 49.9684 48.4661 49.976H29.4142C29.024 49.9684 28.6518 49.81 28.3758 49.534C28.0998 49.2581 27.9414 48.8859 27.9339 48.4957V27.9487H35.2467V33.87C35.2467 34.2626 35.4027 34.6391 35.6803 34.9168C35.9579 35.1944 36.3344 35.3503 36.727 35.3503H41.168C41.5606 35.3503 41.9372 35.1944 42.2148 34.9168C42.4924 34.6391 42.6484 34.2626 42.6484 33.87V27.9487H48.4809C48.8735 27.9487 49.25 28.1046 49.5276 28.3822C49.8052 28.6599 49.9612 29.0364 49.9612 29.429L49.9464 48.4957Z" fill="white"/>
</svg>
