<svg width="21" height="21" viewBox="0 0 21 21" fill="none" xmlns="http://www.w3.org/2000/svg">
<rect width="21" height="21" rx="2" fill="#FFDB58"/>
<path d="M13.5555 12.9445L11.6953 10.1541C11.636 10.065 11.5542 9.99298 11.4583 9.94535C11.3624 9.89773 11.2556 9.87614 11.1488 9.88276C11.0419 9.88939 10.9386 9.92398 10.8493 9.98308C10.76 10.0422 10.6878 10.1237 10.6399 10.2195L10.36 10.7805C10.3121 10.8763 10.2399 10.9578 10.1506 11.0169C10.0613 11.076 9.95804 11.1106 9.85115 11.1173C9.74426 11.1239 9.63751 11.1023 9.54159 11.0547C9.44567 11.0071 9.36395 10.9351 9.30462 10.8459L7.4444 8.05557" stroke="#0D0D0D" stroke-width="0.71" stroke-linecap="round" stroke-linejoin="round"/>
<path d="M14.7778 16H6.22222C5.54721 16 5 15.4528 5 14.7778V6.22222C5 5.54721 5.54721 5 6.22222 5H14.7778C15.4528 5 16 5.54721 16 6.22222V14.7778C16 15.4528 15.4528 16 14.7778 16Z" stroke="#0D0D0D" stroke-width="0.71"/>
</svg>
