<svg width="209" height="209" viewBox="0 0 209 209" fill="none" xmlns="http://www.w3.org/2000/svg">
<g id="Group 478">
<path id="Vector" d="M139.665 24.757H160.4C161.261 24.757 161.954 24.064 161.954 23.203V2.46819C161.954 1.60711 161.261 0.911621 160.4 0.911621H139.665C138.804 0.911621 138.108 1.60711 138.108 2.46819V23.203C138.108 24.064 138.804 24.757 139.665 24.757ZM141.219 4.02222H158.846V21.6464H141.219V4.02222Z" fill="#FFDB58"/>
<path id="Vector_2" d="M144.849 7.26611H155.215V17.6348H144.849V7.26611Z" fill="#FFDB58"/>
<path id="Vector_3" d="M160.4 46.7915H139.665C138.59 46.7915 137.719 47.6628 137.719 48.7379V69.4726C137.719 70.5477 138.59 71.4164 139.665 71.4164H160.4C161.475 71.4164 162.346 70.5477 162.346 69.4726V48.7379C162.346 47.6628 161.475 46.7915 160.4 46.7915ZM158.453 67.5263H141.609V50.6817H158.453V67.5263Z" fill="#FFDB58"/>
<path id="Vector_4" d="M144.849 53.9192H155.215V64.2878H144.849V53.9192Z" fill="#FFDB58"/>
<path id="Vector_5" d="M207.054 0.137695H186.319C185.244 0.137695 184.372 1.00897 184.372 2.08405V22.8188C184.372 23.8913 185.244 24.7626 186.319 24.7626H207.054C208.129 24.7626 209 23.8913 209 22.8188V2.08405C209 1.00897 208.129 0.137695 207.054 0.137695ZM205.11 20.8725H188.265V4.02785H205.11V20.8725Z" fill="#FFDB58"/>
<path id="Vector_6" d="M191.503 7.26611H201.869V17.6348H191.503V7.26611Z" fill="#FFDB58"/>
<path id="Vector_7" d="M165.584 33.9343C164.509 33.9343 163.638 34.8055 163.638 35.8806C163.638 36.9531 164.509 37.8244 165.584 37.8244H183.728C184.8 37.8244 185.672 36.9531 185.672 35.8806V28.0035C185.672 26.9284 184.8 26.0571 183.728 26.0571H175.306V2.47418C175.306 1.39911 174.434 0.527832 173.359 0.527832C172.284 0.527832 171.413 1.39911 171.413 2.47418V28.0035C171.413 29.076 172.284 29.9473 173.359 29.9473H181.782V33.9394H165.584V33.9343Z" fill="#FFDB58"/>
<path id="Vector_8" d="M204.463 26.0569H191.503C190.428 26.0569 189.557 26.9282 189.557 28.0032V41.6073H165.584C164.509 41.6073 163.638 42.4786 163.638 43.5537C163.638 44.6288 164.509 45.4975 165.584 45.4975H191.503C192.576 45.4975 193.447 44.6288 193.447 43.5537V29.947H204.463C205.535 29.947 206.407 29.0758 206.407 28.0032C206.407 26.9282 205.535 26.0569 204.463 26.0569Z" fill="#FFDB58"/>
<path id="Vector_9" d="M204.463 31.9521C203.388 31.9521 202.516 32.8234 202.516 33.896V40.5834C202.516 41.6559 203.388 42.5272 204.463 42.5272C205.535 42.5272 206.407 41.6559 206.407 40.5834V33.896C206.407 32.8234 205.535 31.9521 204.463 31.9521Z" fill="#FFDB58"/>
<path id="Vector_10" d="M164.937 28.9255C164.937 27.853 164.066 26.9817 162.991 26.9817H142.256C141.183 26.9817 140.312 27.853 140.312 28.9255C140.312 30.0006 141.183 30.8718 142.256 30.8718H151.845V36.7033C151.845 37.7758 152.716 38.6471 153.789 38.6471C154.864 38.6471 155.735 37.7758 155.735 36.7033V30.8718H162.991C164.066 30.8718 164.937 30.0006 164.937 28.9255Z" fill="#FFDB58"/>
<path id="Vector_11" d="M160.4 32.166C159.325 32.166 158.453 33.0373 158.453 34.1098V39.9412H139.665C138.59 39.9412 137.719 40.8125 137.719 41.885C137.719 42.9601 138.59 43.8314 139.665 43.8314H160.4C161.475 43.8314 162.346 42.9601 162.346 41.885V34.1098C162.346 33.0373 161.475 32.166 160.4 32.166Z" fill="#FFDB58"/>
<path id="Vector_12" d="M192.93 64.882H176.732V59.0506C176.732 57.978 175.861 57.1068 174.786 57.1068H168.955V51.2753C168.955 50.2003 168.086 49.3315 167.011 49.3315C165.936 49.3315 165.064 50.2003 165.064 51.2753V59.0506C165.064 60.1256 165.936 60.9969 167.011 60.9969H172.842V66.8258C172.842 67.9009 173.711 68.7721 174.786 68.7721H192.93C194.005 68.7721 194.874 67.9009 194.874 66.8258C194.874 65.7533 194.005 64.882 192.93 64.882Z" fill="#FFDB58"/>
<path id="Vector_13" d="M207.054 57.1601H199.796V38.3691C199.796 37.294 198.927 36.4253 197.852 36.4253C196.777 36.4253 195.905 37.294 195.905 38.3691V57.1601H188.91C187.837 57.1601 186.966 58.0313 186.966 59.1039C186.966 60.1789 187.837 61.0502 188.91 61.0502H207.054C208.129 61.0502 209 60.1789 209 59.1039C209 58.0313 208.129 57.1601 207.054 57.1601Z" fill="#FFDB58"/>
<path id="Vector_14" d="M188.212 51.2753C188.212 50.2003 187.34 49.3315 186.265 49.3315H175.897C174.824 49.3315 173.953 50.2003 173.953 51.2753C173.953 52.3504 174.824 53.2217 175.897 53.2217H186.265C187.34 53.2217 188.212 52.3504 188.212 51.2753Z" fill="#FFDB58"/>
<path id="Vector_15" d="M206.366 66.5022C206.338 66.3774 206.3 66.2551 206.254 66.1379C206.205 66.0207 206.147 65.9086 206.075 65.8017C206.045 65.7482 206.002 65.6997 205.963 65.6462C205.928 65.5978 205.884 65.5494 205.836 65.5061C205.788 65.4654 205.744 65.4221 205.696 65.3788C205.647 65.3354 205.594 65.2998 205.543 65.2667C205.436 65.1979 205.324 65.1393 205.204 65.0909C205.087 65.0425 204.965 65.0043 204.842 64.9788C204.779 64.966 204.712 64.9559 204.654 64.9508C204.526 64.9406 204.399 64.9406 204.269 64.9508C204.205 64.9559 204.142 64.966 204.083 64.9788C203.961 65.0043 203.836 65.0425 203.719 65.0909C203.602 65.1393 203.49 65.1979 203.383 65.2667C203.329 65.2998 203.281 65.3405 203.227 65.3788C203.179 65.4221 203.13 65.4577 203.09 65.5061C203.046 65.5545 203.003 65.5978 202.96 65.6462C202.919 65.6947 202.881 65.7482 202.848 65.8017C202.779 65.9086 202.72 66.0207 202.672 66.1379C202.623 66.2551 202.585 66.3774 202.56 66.5022C202.55 66.5659 202.539 66.6296 202.532 66.6882C202.527 66.7519 202.522 66.8156 202.522 66.8793C202.522 66.9455 202.522 67.0092 202.532 67.0729C202.539 67.1366 202.55 67.2003 202.56 67.2589C202.585 67.3837 202.623 67.506 202.672 67.6232C202.72 67.7404 202.779 67.8525 202.848 67.9595C202.881 68.013 202.924 68.0614 202.96 68.1149C203.003 68.1633 203.041 68.2117 203.09 68.255C203.138 68.2957 203.179 68.3441 203.227 68.3823C203.276 68.4257 203.329 68.4613 203.383 68.4944C203.49 68.5632 203.602 68.6218 203.719 68.6702C203.836 68.7186 203.961 68.7568 204.083 68.7823C204.147 68.7925 204.211 68.8052 204.269 68.8154C204.333 68.8205 204.399 68.8256 204.463 68.8256C204.526 68.8256 204.59 68.8256 204.654 68.8154C204.718 68.8103 204.784 68.8002 204.842 68.7823C204.965 68.7568 205.087 68.7186 205.204 68.6702C205.321 68.6218 205.436 68.5632 205.543 68.4944C205.594 68.4613 205.642 68.4206 205.696 68.3823C205.744 68.3441 205.793 68.3008 205.836 68.255C205.879 68.2066 205.928 68.1633 205.963 68.1149C206.007 68.0664 206.045 68.013 206.075 67.9595C206.147 67.8525 206.205 67.7404 206.251 67.6232C206.3 67.506 206.338 67.3837 206.366 67.2589C206.376 67.1952 206.386 67.1315 206.396 67.0729C206.401 67.0092 206.407 66.9455 206.407 66.8793C206.407 66.8156 206.407 66.7519 206.396 66.6882C206.391 66.6245 206.381 66.5608 206.366 66.5022Z" fill="#FFDB58"/>
<path id="Vector_16" d="M206.366 47.3753C206.338 47.253 206.3 47.1282 206.254 47.011C206.205 46.8938 206.147 46.7817 206.075 46.6747C206.045 46.6212 206.002 46.5728 205.963 46.5193C205.928 46.4709 205.884 46.4225 205.836 46.3817C205.788 46.3384 205.744 46.2951 205.696 46.2518C205.647 46.2085 205.594 46.1728 205.543 46.1397C205.436 46.0709 205.324 46.0123 205.204 45.9639C205.087 45.9155 204.965 45.8773 204.842 45.8518C204.779 45.8416 204.712 45.8314 204.654 45.8238C204.526 45.8136 204.399 45.8136 204.269 45.8238C204.205 45.8314 204.142 45.8416 204.083 45.8518C203.961 45.8773 203.836 45.9155 203.719 45.9639C203.602 46.0123 203.49 46.0709 203.383 46.1397C203.329 46.1728 203.281 46.2161 203.227 46.2518C203.179 46.2951 203.13 46.3333 203.09 46.3817C203.046 46.4276 203.003 46.4709 202.96 46.5193C202.919 46.5677 202.881 46.6212 202.848 46.6747C202.779 46.7817 202.72 46.8938 202.672 47.011C202.623 47.1282 202.585 47.253 202.56 47.3753C202.55 47.439 202.539 47.5027 202.532 47.5613C202.527 47.6249 202.522 47.6912 202.522 47.7549C202.522 47.8186 202.522 47.8822 202.532 47.9459C202.539 48.0096 202.55 48.0759 202.56 48.1345C202.585 48.2567 202.623 48.379 202.672 48.4962C202.72 48.6134 202.779 48.728 202.848 48.8325C202.881 48.886 202.924 48.9344 202.96 48.9879C203.003 49.0363 203.041 49.0847 203.09 49.128C203.138 49.1713 203.179 49.2172 203.227 49.2554C203.276 49.2987 203.329 49.3369 203.383 49.3675C203.49 49.4388 203.602 49.4974 203.719 49.5433C203.836 49.5917 203.961 49.6299 204.083 49.6579C204.147 49.6681 204.211 49.6783 204.269 49.6885C204.333 49.6936 204.399 49.6987 204.463 49.6987C204.526 49.6987 204.59 49.6987 204.654 49.6885C204.718 49.6834 204.784 49.6732 204.842 49.6579C204.965 49.6299 205.087 49.5917 205.204 49.5433C205.321 49.4974 205.436 49.4388 205.543 49.3675C205.594 49.3369 205.642 49.2936 205.696 49.2554C205.744 49.2172 205.793 49.1764 205.836 49.128C205.879 49.0796 205.928 49.0363 205.963 48.9879C206.007 48.9395 206.045 48.886 206.075 48.8325C206.147 48.728 206.205 48.6134 206.251 48.4962C206.3 48.379 206.338 48.2567 206.366 48.1345C206.376 48.0682 206.386 48.0045 206.396 47.9459C206.401 47.8822 206.407 47.8186 206.407 47.7549C206.407 47.6912 206.407 47.6249 206.396 47.5613C206.391 47.4976 206.381 47.4339 206.366 47.3753Z" fill="#FFDB58"/>
<path id="Vector_17" d="M179.863 17.9278C178.788 17.9278 177.917 17.0565 177.917 15.984V9.29914C177.917 8.22406 178.788 7.35278 179.863 7.35278C180.938 7.35278 181.81 8.22406 181.81 9.29914V15.984C181.81 17.0565 180.938 17.9278 179.863 17.9278Z" fill="#FFDB58"/>
<path id="Vector_18" d="M181.771 2.85377C181.743 2.97606 181.708 3.09834 181.659 3.21553C181.611 3.33272 181.552 3.44481 181.484 3.55181C181.45 3.60531 181.407 3.65371 181.371 3.70721C181.333 3.75562 181.29 3.80402 181.242 3.84733C181.193 3.89064 181.152 3.9314 181.104 3.97471C181.056 4.01802 181.002 4.05623 180.949 4.0868C180.842 4.15559 180.729 4.21673 180.612 4.26259C180.493 4.31099 180.37 4.3492 180.248 4.37468C180.184 4.38742 180.121 4.39761 180.062 4.4027C179.932 4.41289 179.805 4.41289 179.677 4.4027C179.611 4.39761 179.547 4.38742 179.489 4.37468C179.367 4.3492 179.244 4.31099 179.124 4.26259C179.007 4.21673 178.895 4.15559 178.788 4.0868C178.735 4.05623 178.686 4.01292 178.633 3.97471C178.587 3.9314 178.539 3.89573 178.495 3.84733C178.452 3.79893 178.409 3.75562 178.368 3.70721C178.325 3.65881 178.286 3.60531 178.256 3.55181C178.184 3.44481 178.126 3.33272 178.077 3.21553C178.029 3.09834 177.993 2.97606 177.965 2.85377C177.955 2.78754 177.945 2.72385 177.94 2.66525C177.935 2.60156 177.93 2.53787 177.93 2.47418C177.93 2.41049 177.93 2.34426 177.94 2.28057C177.945 2.21688 177.955 2.15319 177.965 2.09459C177.993 1.97231 178.029 1.84748 178.077 1.73029C178.126 1.6131 178.184 1.50101 178.256 1.39401C178.286 1.34051 178.33 1.29211 178.368 1.23861C178.409 1.1902 178.447 1.1418 178.495 1.10104C178.544 1.05773 178.587 1.00933 178.633 0.971111C178.681 0.927802 178.735 0.892136 178.788 0.859018C178.895 0.790233 179.007 0.731638 179.124 0.683234C179.244 0.63483 179.367 0.596617 179.489 0.571141C179.552 0.560951 179.616 0.55076 179.677 0.538022C179.741 0.532928 179.805 0.527832 179.868 0.527832C179.932 0.527832 179.996 0.527832 180.062 0.538022C180.126 0.543118 180.189 0.555856 180.248 0.571141C180.37 0.596617 180.493 0.63483 180.612 0.683234C180.729 0.731638 180.842 0.790233 180.949 0.859018C181.002 0.892136 181.05 0.935445 181.104 0.971111C181.15 1.00933 181.198 1.05263 181.242 1.10104C181.285 1.14689 181.333 1.1902 181.371 1.23861C181.412 1.28701 181.45 1.34051 181.484 1.39401C181.552 1.50101 181.611 1.6131 181.659 1.73029C181.708 1.84748 181.743 1.97231 181.771 2.09459C181.782 2.15828 181.792 2.22197 181.802 2.28057C181.81 2.34426 181.815 2.41049 181.815 2.47418C181.815 2.53787 181.815 2.60156 181.802 2.66525C181.797 2.72894 181.787 2.79518 181.771 2.85377Z" fill="#FFDB58"/>
<path id="Vector_19" d="M181.771 23.198C181.743 23.3203 181.708 23.4426 181.659 23.5598C181.611 23.677 181.552 23.7916 181.484 23.896C181.45 23.9495 181.407 23.998 181.371 24.0515C181.333 24.0999 181.29 24.1483 181.242 24.1916C181.193 24.2349 181.152 24.2756 181.104 24.3189C181.056 24.3623 181.002 24.4005 180.949 24.431C180.842 24.5024 180.729 24.561 180.612 24.6068C180.493 24.6552 180.37 24.6934 180.248 24.7215C180.184 24.7317 180.121 24.7418 180.062 24.7469C179.932 24.7571 179.805 24.7571 179.677 24.7469C179.611 24.7418 179.547 24.7317 179.489 24.7215C179.367 24.6934 179.244 24.6552 179.124 24.6068C179.007 24.561 178.895 24.5024 178.788 24.431C178.735 24.4005 178.686 24.3572 178.633 24.3189C178.587 24.2756 178.539 24.24 178.495 24.1916C178.452 24.1432 178.409 24.0999 178.368 24.0515C178.325 24.003 178.286 23.9495 178.256 23.896C178.184 23.7916 178.126 23.677 178.077 23.5598C178.029 23.4426 177.993 23.3203 177.965 23.198C177.955 23.1343 177.945 23.0681 177.94 23.0095C177.935 22.9458 177.93 22.8821 177.93 22.8184C177.93 22.7547 177.93 22.6885 177.94 22.6248C177.945 22.5611 177.955 22.4974 177.965 22.4388C177.993 22.3165 178.029 22.1917 178.077 22.0745C178.126 21.9573 178.184 21.8452 178.256 21.7382C178.286 21.6847 178.33 21.6363 178.368 21.5828C178.409 21.5344 178.447 21.486 178.495 21.4453C178.544 21.402 178.587 21.3536 178.633 21.3153C178.681 21.2746 178.735 21.2364 178.788 21.2033C178.895 21.1345 179.007 21.0759 179.124 21.0275C179.244 20.9791 179.367 20.9409 179.489 20.9154C179.552 20.9052 179.616 20.895 179.677 20.8823C179.741 20.8772 179.805 20.8721 179.868 20.8721C179.932 20.8721 179.996 20.8721 180.062 20.8823C180.126 20.8874 180.189 20.9001 180.248 20.9154C180.37 20.9409 180.493 20.9791 180.612 21.0275C180.729 21.0759 180.842 21.1345 180.949 21.2033C181.002 21.2364 181.05 21.2797 181.104 21.3153C181.15 21.3536 181.198 21.3969 181.242 21.4453C181.285 21.4937 181.333 21.5344 181.371 21.5828C181.412 21.6312 181.45 21.6847 181.484 21.7382C181.552 21.8452 181.611 21.9573 181.659 22.0745C181.708 22.1917 181.743 22.3165 181.771 22.4388C181.782 22.5025 181.792 22.5662 181.802 22.6248C181.81 22.6885 181.815 22.7547 181.815 22.8184C181.815 22.8821 181.815 22.9458 181.802 23.0095C181.797 23.0732 181.787 23.1394 181.771 23.198Z" fill="#FFDB58"/>
<path id="Vector_20" d="M166.883 0.527556C165.808 0.527556 164.937 1.39883 164.937 2.47391V15.9888C164.937 17.0614 165.808 17.9326 166.883 17.9326C167.956 17.9326 168.827 17.0614 168.827 15.9888V2.46881C168.827 1.39373 167.956 0.522461 166.883 0.522461V0.527556Z" fill="#FFDB58"/>
<path id="Vector_21" d="M168.784 22.439C168.758 22.3167 168.72 22.1919 168.672 22.0747C168.623 21.9575 168.565 21.8454 168.496 21.7384C168.465 21.6849 168.422 21.6365 168.384 21.583C168.346 21.5346 168.305 21.4862 168.256 21.4454C168.208 21.4021 168.165 21.3588 168.116 21.3155C168.068 21.2748 168.014 21.2365 167.961 21.2034C167.854 21.1346 167.742 21.076 167.625 21.0276C167.507 20.9792 167.385 20.941 167.263 20.9155C167.197 20.9054 167.133 20.8952 167.074 20.8875C166.947 20.8773 166.817 20.8773 166.69 20.8875C166.626 20.8952 166.562 20.9054 166.504 20.9155C166.379 20.941 166.257 20.9792 166.139 21.0276C166.022 21.076 165.91 21.1346 165.803 21.2034C165.75 21.2365 165.701 21.2799 165.648 21.3155C165.599 21.3588 165.551 21.397 165.508 21.4454C165.467 21.4938 165.424 21.5346 165.38 21.583C165.337 21.6314 165.301 21.6849 165.268 21.7384C165.199 21.8454 165.141 21.9575 165.092 22.0747C165.044 22.1919 165.006 22.3167 164.98 22.439C164.97 22.5027 164.957 22.5664 164.952 22.625C164.947 22.6887 164.942 22.7549 164.942 22.8186C164.942 22.8823 164.942 22.946 164.952 23.0097C164.957 23.0734 164.97 23.1396 164.98 23.1982C165.006 23.3205 165.044 23.4427 165.092 23.5599C165.141 23.6771 165.199 23.7918 165.268 23.8962C165.301 23.9497 165.342 23.9981 165.38 24.0516C165.424 24.1 165.462 24.1484 165.508 24.1917C165.556 24.235 165.599 24.2835 165.648 24.3191C165.696 24.3624 165.75 24.4006 165.803 24.4312C165.91 24.5025 166.022 24.5611 166.139 24.607C166.257 24.6554 166.379 24.6936 166.504 24.7216C166.567 24.7318 166.631 24.742 166.69 24.7522C166.753 24.7573 166.817 24.7624 166.883 24.7624C166.947 24.7624 167.011 24.7624 167.074 24.7522C167.138 24.7471 167.202 24.7369 167.263 24.7216C167.385 24.6936 167.507 24.6554 167.625 24.607C167.742 24.5611 167.854 24.5025 167.961 24.4312C168.014 24.4006 168.063 24.3573 168.116 24.3191C168.165 24.2835 168.213 24.2401 168.256 24.1917C168.297 24.1433 168.346 24.1 168.384 24.0516C168.427 24.0032 168.463 23.9497 168.496 23.8962C168.565 23.7918 168.623 23.6771 168.672 23.5599C168.72 23.4427 168.758 23.3205 168.784 23.1982C168.797 23.1345 168.807 23.0683 168.817 23.0097C168.822 22.946 168.827 22.8823 168.827 22.8186C168.827 22.7549 168.827 22.6887 168.817 22.625C168.812 22.5613 168.802 22.4976 168.784 22.439Z" fill="#FFDB58"/>
<path id="Vector_22" d="M183.203 58.3577C183.155 58.2379 183.096 58.1258 183.027 58.0188C182.989 57.9653 182.951 57.9195 182.915 57.866C182.872 57.8176 182.829 57.7692 182.785 57.7259C182.745 57.6825 182.696 57.6418 182.648 57.5985C182.599 57.5552 182.546 57.517 182.492 57.4864C182.385 57.4151 182.273 57.3565 182.156 57.3081C182.039 57.2622 181.914 57.224 181.792 57.196C181.728 57.1858 181.664 57.1756 181.606 57.1705C181.476 57.1603 181.349 57.1603 181.226 57.1705C181.163 57.1756 181.099 57.1858 181.033 57.196C180.91 57.224 180.788 57.2622 180.671 57.3081C180.554 57.3565 180.442 57.4151 180.335 57.4864C180.281 57.517 180.228 57.5603 180.179 57.5985C180.131 57.6418 180.082 57.6775 180.039 57.7259C179.996 57.7692 179.95 57.8176 179.912 57.866C179.868 57.9118 179.83 57.9653 179.8 58.0188C179.731 58.1258 179.67 58.2379 179.624 58.3577C179.575 58.4748 179.537 58.5971 179.512 58.7194C179.499 58.7831 179.489 58.8493 179.484 58.9079C179.479 58.9716 179.474 59.0353 179.474 59.099C179.474 59.6136 179.682 60.1104 180.044 60.4721C180.088 60.5155 180.136 60.5588 180.184 60.6021C180.233 60.6428 180.286 60.6811 180.34 60.7142C180.442 60.783 180.559 60.8415 180.676 60.89C180.793 60.9384 180.915 60.974 181.038 61.002C181.104 61.0122 181.168 61.0224 181.231 61.0275C181.295 61.0352 181.359 61.0403 181.422 61.0403C181.489 61.0403 181.552 61.0403 181.616 61.0275C181.68 61.0224 181.743 61.0122 181.802 61.002C181.927 60.974 182.049 60.9384 182.166 60.89C182.284 60.8415 182.396 60.783 182.503 60.7142C182.556 60.6811 182.605 60.6377 182.658 60.6021C182.706 60.5588 182.755 60.5206 182.798 60.4721C183.16 60.1104 183.369 59.6136 183.369 59.099C183.369 59.0353 183.369 58.9716 183.359 58.9079C183.354 58.8417 183.343 58.778 183.331 58.7194C183.305 58.5971 183.267 58.4748 183.218 58.3577H183.203Z" fill="#FFDB58"/>
<path id="Vector_23" d="M147.44 37.8677C148.515 37.8677 149.387 36.9964 149.387 35.9213C149.387 34.8488 148.515 33.9775 147.44 33.9775H142.256C141.183 33.9775 140.312 34.8488 140.312 35.9213C140.312 36.9964 141.183 37.8677 142.256 37.8677H147.44Z" fill="#FFDB58"/>
<path id="Vector_24" d="M74.1132 130.161C83.9724 120.022 91.4444 111.722 96.3128 106.176C104.2 97.193 112.105 87.6651 122.777 86.2588C124.983 85.9709 126.632 86.1136 127.289 87.0766C128.868 89.3949 123.712 95.0174 115.952 105.592C111.833 111.21 108.702 115.874 106.799 118.776C112.806 114.3 117.445 110.339 120.581 107.544C129.368 99.7101 133.604 94.5206 140.327 94.5206C141.29 94.5206 144.539 94.5206 145.463 96.2988C146.857 98.9763 142.101 103.936 138.366 107.89C133.53 113.016 126.565 120.531 117.817 130.454C123.857 126.248 129.34 122.845 133.984 120.139C138.317 117.617 142.737 115.235 148.248 115.829C150.133 116.03 151.341 116.165 151.769 117.008C153.205 119.851 143.598 126.365 129.222 141.014C126.802 143.477 124.866 145.546 123.62 146.894C127.913 144.654 131.658 143.014 134.529 141.847C142.664 138.556 145.922 138.245 148.867 138.673C151.651 139.08 153.302 139.32 153.817 140.395C155.756 144.494 138.473 155.41 109.593 178.007C95.1333 189.319 88.586 195.097 84.4335 199.073C83.2463 200.212 82.1356 201.323 82.1305 201.323C81.0503 202.444 80.286 203.348 78.7575 205.193C77.6722 206.502 76.406 208.036 74.9947 209.766H31.0515C45.4045 183.227 59.7601 156.694 74.1132 130.156V130.161Z" fill="white"/>
<path id="Vector_25" d="M74.9947 211.411C74.638 211.411 74.2737 211.294 73.9705 211.05C73.2649 210.482 73.1528 209.452 73.7183 208.747C76.7066 205.027 79.9166 201.387 83.2514 197.94C91.1285 189.8 98.328 184.425 104.116 180.107C105.713 178.914 107.222 177.794 108.585 176.724C116.569 170.477 123.552 165.214 129.709 160.564C137.191 154.919 143.102 150.463 147.04 147.065C151.977 142.805 152.324 141.422 152.324 141.116C151.929 140.79 150.108 140.528 148.632 140.308C145.886 139.908 142.796 140.283 135.143 143.376C131.515 144.846 127.893 146.519 124.38 148.351C123.669 148.721 122.805 148.527 122.319 147.893C121.832 147.256 121.875 146.369 122.413 145.781C124.237 143.809 126.132 141.822 128.045 139.87C133.288 134.525 137.879 130.284 141.568 126.867C145.649 123.089 149.866 119.194 150.24 117.793C149.825 117.65 148.862 117.548 148.072 117.462C143.214 116.939 139.349 118.916 134.807 121.561C129.368 124.725 123.969 128.172 118.752 131.807C118.074 132.281 117.144 132.169 116.594 131.55C116.044 130.931 116.039 129.996 116.589 129.374C123.623 121.4 130.547 113.796 137.173 106.775L137.387 106.55C139.81 103.99 144.837 98.658 144.009 97.0632C143.93 96.9155 143.384 96.1665 140.327 96.1665C135.395 96.1665 131.798 99.486 125.839 104.979C124.535 106.181 123.19 107.422 121.677 108.774C117.295 112.685 112.617 116.496 107.782 120.098C107.145 120.572 106.253 120.519 105.675 119.974C105.099 119.428 104.992 118.547 105.431 117.88C108.332 113.449 111.425 108.994 114.632 104.622C116.296 102.355 117.85 100.304 119.218 98.4924C122.538 94.1029 126.305 89.1275 125.926 87.9836C125.926 87.9836 125.396 87.5684 122.991 87.8843C113.415 89.1453 105.889 97.7332 98.6158 106.038L97.5484 107.256C90.5578 115.212 83.0705 123.303 75.2902 131.305C74.6584 131.955 73.6215 131.968 72.9693 131.336C72.3172 130.707 72.307 129.67 72.9388 129.018C80.6758 121.059 88.1249 113.006 95.0849 105.091L96.1523 103.873C103.828 95.1092 111.764 86.05 122.568 84.6285C124.55 84.3661 127.347 84.2387 128.644 86.1468C130.557 88.9466 127.64 92.7935 121.837 100.469C120.474 102.27 118.93 104.311 117.277 106.561C116.22 108.01 115.167 109.462 114.136 110.927C115.962 109.409 117.753 107.875 119.496 106.321C120.986 104.989 122.324 103.756 123.615 102.563C129.938 96.732 134.116 92.8801 140.327 92.8801C141.616 92.8801 145.532 92.8801 146.915 95.5423C148.824 99.2032 144.223 104.077 139.772 108.795L139.558 109.019C135.597 113.215 131.531 117.622 127.401 122.193C129.314 121.005 131.238 119.846 133.161 118.723C138.055 115.875 142.582 113.566 148.429 114.198C150.653 114.438 152.411 114.631 153.239 116.272C154.708 119.189 151.295 122.348 143.8 129.272C140.279 132.528 135.935 136.553 130.99 141.554C131.964 141.131 132.937 140.721 133.91 140.331C142.251 136.953 145.794 136.574 149.101 137.055C152.298 137.519 154.408 137.83 155.297 139.694C157.274 143.867 150.304 149.126 131.681 163.17C125.528 167.81 118.561 173.068 110.597 179.294C109.204 180.384 107.685 181.518 106.073 182.721C100.379 186.967 93.2939 192.259 85.6028 200.205C82.3317 203.583 79.1905 207.142 76.2685 210.787C75.9424 211.187 75.466 211.401 74.9896 211.401L74.9947 211.411Z" fill="#231F20"/>
<path id="Vector_26" d="M120.186 152.857C119.524 152.857 118.897 152.45 118.653 151.792C115.471 143.306 111.025 135.493 105.436 128.574C102.763 125.269 99.8081 122.143 96.6491 119.285C95.9766 118.676 95.9281 117.639 96.5319 116.969C97.1408 116.302 98.1777 116.248 98.8451 116.852C102.134 119.83 105.206 123.078 107.986 126.51C113.799 133.702 118.421 141.826 121.725 150.638C122.041 151.489 121.613 152.434 120.762 152.75C120.576 152.819 120.377 152.857 120.186 152.857Z" fill="#231F20"/>
<path id="Vector_27" d="M166.285 32.4257C166.129 32.2142 165.964 32.0104 165.793 31.8117C165.375 31.3481 164.912 30.9201 164.392 30.5609C163.88 30.2093 163.317 29.9163 162.718 29.6896C162.119 29.4654 161.485 29.3176 160.823 29.2463L83.6157 21.1348C79.3612 20.6864 75.5577 23.7741 75.1068 28.0235L61.5485 157.025C61.4415 158.019 61.5332 158.992 61.7855 159.907C61.8695 160.21 61.9714 160.505 62.0886 160.793C62.565 161.947 63.3191 162.969 64.2694 163.764C64.6489 164.085 65.0616 164.367 65.5049 164.615C65.9482 164.859 66.4119 165.058 66.9036 165.213C67.3952 165.366 67.9098 165.473 68.4372 165.532L145.644 173.646C146.977 173.783 148.258 173.582 149.412 173.101C149.873 172.907 150.316 172.673 150.727 172.4C152.586 171.164 153.901 169.147 154.153 166.757L167.711 37.7552C167.92 35.7834 167.362 33.9135 166.285 32.4257Z" fill="#231F20"/>
<path id="Vector_28" d="M67.4283 141.817L79.0402 31.3535L163.174 40.1962L151.562 150.662L67.4283 141.817Z" fill="white"/>
<path id="Vector_29" d="M115.751 157.917C115.751 158.408 115.702 158.895 115.606 159.376C115.509 159.858 115.369 160.327 115.18 160.78C114.992 161.234 114.762 161.664 114.49 162.074C114.215 162.482 113.906 162.859 113.557 163.208C113.211 163.554 112.834 163.865 112.424 164.138C112.016 164.41 111.586 164.642 111.132 164.828C110.676 165.017 110.21 165.159 109.728 165.256C109.247 165.35 108.76 165.399 108.269 165.399C107.777 165.399 107.29 165.35 106.809 165.256C106.327 165.159 105.859 165.017 105.405 164.828C104.952 164.642 104.519 164.41 104.111 164.138C103.703 163.865 103.324 163.554 102.977 163.208C102.631 162.859 102.32 162.482 102.047 162.074C101.775 161.664 101.543 161.234 101.354 160.78C101.168 160.327 101.026 159.858 100.929 159.376C100.835 158.895 100.786 158.408 100.786 157.917C100.786 157.425 100.835 156.938 100.929 156.457C101.026 155.975 101.168 155.507 101.354 155.053C101.543 154.6 101.775 154.169 102.047 153.761C102.32 153.351 102.631 152.974 102.977 152.628C103.324 152.279 103.703 151.968 104.111 151.695C104.519 151.423 104.952 151.194 105.405 151.005C105.859 150.816 106.327 150.674 106.809 150.58C107.29 150.483 107.777 150.434 108.269 150.434C108.76 150.434 109.247 150.483 109.728 150.58C110.21 150.674 110.676 150.816 111.132 151.005C111.586 151.194 112.016 151.423 112.424 151.695C112.834 151.968 113.211 152.279 113.557 152.628C113.906 152.974 114.215 153.351 114.49 153.761C114.762 154.169 114.992 154.6 115.18 155.053C115.369 155.507 115.509 155.975 115.606 156.457C115.702 156.938 115.751 157.425 115.751 157.917Z" fill="white"/>
<path id="Vector_30" d="M127.207 31.919C127.174 31.919 127.149 31.919 127.116 31.919L110.86 30.2096C110.396 30.1612 110.052 29.7383 110.1 29.2747C110.149 28.8084 110.572 28.4722 111.035 28.5155L127.294 30.2249C127.758 30.2733 128.099 30.6962 128.053 31.1599C128.005 31.598 127.635 31.9241 127.207 31.9241V31.919Z" fill="white"/>
<path id="Vector_31" d="M132.376 32.6727C132.305 32.6727 132.236 32.6676 132.167 32.6523C132.104 32.6345 132.032 32.6192 131.969 32.5912C131.905 32.5657 131.847 32.5326 131.788 32.4918C131.729 32.4536 131.676 32.4103 131.627 32.3619C131.574 32.3084 131.531 32.2549 131.492 32.1963C131.457 32.1428 131.419 32.0791 131.393 32.0154C131.365 31.9517 131.35 31.8804 131.334 31.8167C131.317 31.7479 131.312 31.6791 131.312 31.6078C131.312 31.325 131.424 31.0524 131.627 30.8563C131.872 30.6092 132.236 30.4971 132.583 30.5658C132.654 30.5786 132.718 30.599 132.787 30.627C132.85 30.6525 132.909 30.6856 132.967 30.7212C133.026 30.7646 133.08 30.8079 133.128 30.8563C133.327 31.0524 133.444 31.325 133.444 31.6078C133.444 31.6791 133.434 31.7479 133.423 31.8167C133.406 31.8804 133.385 31.9517 133.36 32.0154C133.332 32.0791 133.299 32.1428 133.263 32.1963C133.225 32.2549 133.176 32.3084 133.128 32.3619C132.932 32.5606 132.659 32.6727 132.376 32.6727Z" fill="white"/>
<path id="Vector_32" d="M88.0714 91.2013L104.633 92.9438C105.319 93.0126 105.932 92.5158 106.006 91.833L107.749 75.2712C107.82 74.5859 107.321 73.972 106.638 73.8981L90.0763 72.1555C89.3936 72.0867 88.7771 72.5835 88.7032 73.2663L86.9606 89.8281C86.8919 90.5134 87.3886 91.1274 88.0714 91.2013ZM91.0546 74.7694L105.13 76.2495L103.65 90.3249L89.5745 88.8447L91.0546 74.7694Z" fill="#231F20"/>
<path id="Vector_33" d="M92.8099 85.943L93.6786 77.6633L101.961 78.5321L101.09 86.8117L92.8099 85.943Z" fill="#231F20"/>
<path id="Vector_34" d="M102.784 110.537L86.2244 108.795C85.3684 108.703 84.599 109.33 84.5073 110.183L82.7648 126.745C82.6756 127.601 83.2998 128.37 84.1557 128.462L100.718 130.202C101.571 130.294 102.34 129.669 102.432 128.813L104.175 112.252C104.266 111.398 103.64 110.626 102.784 110.537ZM99.4871 126.938L86.0308 125.522L87.4472 112.066L100.904 113.482L99.4871 126.938Z" fill="#231F20"/>
<path id="Vector_35" d="M88.8891 123.202L89.7579 114.922L98.04 115.791L97.1688 124.073L88.8891 123.202Z" fill="#231F20"/>
<path id="Vector_36" d="M143.968 77.1892L127.406 75.4467C126.55 75.3549 125.781 75.9816 125.689 76.8376L123.946 93.3969C123.857 94.2529 124.481 95.0223 125.337 95.114L141.899 96.8565C142.753 96.9457 143.522 96.3215 143.614 95.4655L145.356 78.9037C145.448 78.0503 144.821 77.2809 143.968 77.1892ZM140.669 93.5905L127.212 92.1741L128.629 78.7178L142.085 80.1342L140.669 93.5905Z" fill="#231F20"/>
<path id="Vector_37" d="M130.073 89.8534L130.945 81.5737L139.224 82.4425L138.353 90.7246L130.073 89.8534Z" fill="#231F20"/>
<path id="Vector_38" d="M108.001 100.703C107.145 100.612 106.376 101.238 106.284 102.092C106.195 102.948 106.819 103.717 107.675 103.809L122.168 105.332C123.024 105.422 123.794 104.797 123.883 103.941L124.545 97.6463C124.637 96.7903 124.013 96.021 123.157 95.9318L116.429 95.2261L118.411 76.3868C118.502 75.5333 117.876 74.764 117.022 74.6722C116.166 74.5805 115.397 75.2072 115.305 76.0607L113.163 96.4541C113.073 97.3101 113.698 98.0794 114.554 98.1711L121.282 98.8768L120.945 102.066L108.006 100.709L108.001 100.703Z" fill="#231F20"/>
<path id="Vector_39" d="M139.718 97.6743L129.368 96.5839C128.512 96.4922 127.742 97.1163 127.651 97.9723L126.507 108.843L107.359 106.828C106.503 106.736 105.734 107.363 105.645 108.216C105.553 109.072 106.18 109.842 107.033 109.933L127.737 112.109C128.591 112.198 129.36 111.574 129.452 110.718L130.596 99.8473L139.392 100.772C140.248 100.864 141.018 100.237 141.107 99.3837C141.199 98.5277 140.572 97.7583 139.718 97.6666V97.6743Z" fill="#231F20"/>
<path id="Vector_40" d="M139.222 102.387C138.366 102.296 137.596 102.922 137.505 103.776L136.944 109.115C136.852 109.969 137.479 110.738 138.335 110.83C139.189 110.922 139.958 110.295 140.05 109.442L140.61 104.102C140.702 103.246 140.075 102.476 139.222 102.387Z" fill="#231F20"/>
<path id="Vector_41" d="M107.904 96.6477C107.996 95.7917 107.369 95.0223 106.516 94.9306L89.9541 93.1906C89.0981 93.0989 88.3287 93.723 88.237 94.579C88.1478 95.435 88.772 96.2044 89.628 96.2935L97.286 97.1011L96.7943 101.761C96.7026 102.617 97.3293 103.386 98.1828 103.478C99.0387 103.567 99.8081 102.943 99.8998 102.087L100.392 97.4272L106.19 98.0361C107.043 98.1278 107.813 97.5011 107.904 96.6477Z" fill="#231F20"/>
<path id="Vector_42" d="M104.009 98.8541C103.153 98.7624 102.384 99.3891 102.292 100.245L101.8 104.905L86.7901 103.328C85.9341 103.236 85.1647 103.863 85.0755 104.716C84.9838 105.572 85.608 106.341 86.464 106.433L103.026 108.176C103.882 108.265 104.651 107.641 104.74 106.785L105.392 100.576C105.484 99.7203 104.858 98.9509 104.004 98.8592L104.009 98.8541Z" fill="#231F20"/>
<path id="Vector_43" d="M127.246 127.718L114.306 126.36L114.798 121.701C114.89 120.845 114.263 120.075 113.41 119.986L108.75 119.495L109.242 114.833C109.331 113.979 108.707 113.21 107.851 113.118C106.995 113.026 106.225 113.653 106.136 114.506L105.484 120.717C105.392 121.573 106.019 122.343 106.873 122.432L111.532 122.924L111.04 127.586C110.951 128.439 111.575 129.209 112.431 129.3L126.925 130.824C127.781 130.913 128.55 130.289 128.639 129.433C128.731 128.579 128.104 127.81 127.251 127.718H127.246Z" fill="#231F20"/>
<path id="Vector_44" d="M139.178 122.738L133.38 122.129L134.957 107.116C135.046 106.263 134.422 105.493 133.566 105.401C132.713 105.31 131.943 105.936 131.852 106.79L130.275 121.803L124.685 121.214C123.829 121.123 123.06 121.749 122.971 122.603C122.879 123.459 123.503 124.228 124.359 124.32L138.852 125.843C139.708 125.932 140.478 125.308 140.567 124.452C140.659 123.599 140.034 122.829 139.178 122.738Z" fill="#231F20"/>
<path id="Vector_45" d="M124.622 116.453C124.711 115.597 124.087 114.827 123.231 114.738L114.948 113.867C114.092 113.775 113.323 114.399 113.234 115.255C113.142 116.111 113.766 116.881 114.622 116.97L122.904 117.841C123.76 117.933 124.53 117.309 124.622 116.453Z" fill="#231F20"/>
<path id="Vector_46" d="M137.843 130.138C137.831 130.036 137.815 129.937 137.782 129.84C137.757 129.743 137.714 129.646 137.67 129.557C137.65 129.514 137.624 129.466 137.591 129.422C137.563 129.379 137.533 129.338 137.5 129.3C137.469 129.262 137.431 129.226 137.398 129.188C137.362 129.15 137.324 129.119 137.286 129.086C137.207 129.022 137.12 128.964 137.036 128.915C136.944 128.867 136.852 128.824 136.753 128.798C136.705 128.78 136.656 128.77 136.603 128.76C136.501 128.74 136.399 128.727 136.297 128.727C136.249 128.727 136.195 128.727 136.142 128.734C136.042 128.745 135.94 128.765 135.844 128.793C135.747 128.819 135.65 128.862 135.561 128.905C135.518 128.926 135.469 128.954 135.426 128.984C135.385 129.012 135.342 129.043 135.304 129.076C135.265 129.106 135.23 129.145 135.191 129.178C135.153 129.213 135.123 129.252 135.09 129.29C135.026 129.369 134.967 129.45 134.919 129.539C134.87 129.631 134.827 129.723 134.802 129.822C134.786 129.871 134.774 129.919 134.763 129.973C134.753 130.021 134.748 130.074 134.743 130.123C134.738 130.171 134.733 130.225 134.733 130.278C134.733 130.327 134.733 130.38 134.738 130.434C134.748 130.533 134.769 130.635 134.797 130.732C134.822 130.829 134.865 130.925 134.909 131.015C134.929 131.058 134.957 131.106 134.988 131.15C135.016 131.19 135.046 131.234 135.079 131.272C135.112 131.31 135.148 131.351 135.181 131.384C135.219 131.422 135.255 131.453 135.293 131.486C135.372 131.55 135.454 131.608 135.546 131.657C135.635 131.705 135.726 131.748 135.828 131.774C135.877 131.789 135.923 131.802 135.976 131.812C136.025 131.822 136.078 131.827 136.126 131.832C136.175 131.837 136.228 131.842 136.282 131.842C136.33 131.842 136.384 131.842 136.437 131.837C136.539 131.827 136.641 131.812 136.735 131.779C136.832 131.753 136.929 131.71 137.018 131.667C137.061 131.646 137.11 131.618 137.153 131.588C137.196 131.56 137.237 131.529 137.275 131.496C137.314 131.463 137.357 131.427 137.387 131.394C137.426 131.358 137.459 131.32 137.489 131.282C137.553 131.203 137.612 131.116 137.66 131.032C137.708 130.941 137.752 130.849 137.777 130.747C137.795 130.699 137.805 130.653 137.815 130.599C137.826 130.551 137.831 130.497 137.836 130.449C137.843 130.401 137.849 130.347 137.849 130.294C137.849 130.245 137.849 130.192 137.843 130.138Z" fill="#231F20"/>
<path id="Vector_47" d="M139.451 114.865C139.441 114.764 139.423 114.662 139.392 114.565C139.364 114.471 139.324 114.374 139.28 114.282C139.257 114.241 139.232 114.193 139.199 114.15C139.173 114.106 139.14 114.063 139.11 114.027C139.077 113.989 139.038 113.951 139.008 113.915C138.97 113.877 138.931 113.844 138.896 113.813C138.814 113.75 138.73 113.688 138.643 113.643C138.554 113.594 138.463 113.551 138.361 113.523C138.312 113.508 138.264 113.497 138.21 113.487C138.108 113.464 138.009 113.454 137.907 113.454C137.859 113.454 137.805 113.454 137.752 113.459C137.65 113.469 137.548 113.492 137.451 113.518C137.357 113.546 137.26 113.589 137.168 113.63C137.125 113.653 137.079 113.678 137.036 113.711C136.993 113.737 136.949 113.77 136.914 113.801C136.875 113.834 136.837 113.872 136.799 113.902C136.763 113.941 136.73 113.979 136.7 114.015C136.633 114.096 136.575 114.175 136.526 114.267C136.481 114.358 136.437 114.448 136.409 114.55C136.394 114.598 136.384 114.646 136.374 114.7C136.361 114.748 136.356 114.802 136.351 114.85C136.346 114.899 136.34 114.95 136.34 115.003C136.34 115.051 136.34 115.105 136.346 115.158C136.356 115.26 136.379 115.362 136.404 115.459C136.432 115.556 136.475 115.65 136.516 115.742C136.539 115.785 136.565 115.834 136.598 115.874C136.623 115.918 136.656 115.961 136.687 115.999C136.72 116.035 136.758 116.078 136.789 116.111C136.827 116.147 136.865 116.18 136.901 116.213C136.982 116.277 137.061 116.335 137.153 116.384C137.245 116.432 137.334 116.473 137.436 116.501C137.484 116.516 137.533 116.526 137.586 116.539C137.635 116.549 137.688 116.555 137.737 116.56C137.782 116.565 137.836 116.57 137.889 116.57C137.938 116.57 137.991 116.57 138.045 116.565C138.147 116.555 138.249 116.539 138.345 116.506C138.44 116.478 138.536 116.437 138.628 116.394C138.672 116.371 138.72 116.346 138.761 116.312C138.804 116.287 138.847 116.254 138.886 116.223C138.921 116.19 138.964 116.152 138.998 116.121C139.033 116.083 139.066 116.048 139.099 116.009C139.163 115.928 139.222 115.844 139.27 115.757C139.319 115.668 139.359 115.576 139.387 115.474C139.403 115.426 139.413 115.378 139.423 115.324C139.436 115.276 139.441 115.222 139.446 115.176C139.451 115.128 139.456 115.074 139.456 115.021C139.456 114.972 139.456 114.919 139.451 114.865Z" fill="#231F20"/>
<path id="Vector_48" d="M120.752 89.1167C119.896 89.025 119.272 88.2556 119.363 87.4021L119.924 82.0624C120.016 81.2064 120.785 80.5823 121.638 80.674C122.494 80.7631 123.118 81.5325 123.029 82.3885L122.466 87.7282C122.377 88.5817 121.608 89.2084 120.752 89.1167Z" fill="#231F20"/>
<path id="Vector_49" d="M123.541 77.2324C123.508 77.3292 123.473 77.4235 123.424 77.5152C123.376 77.6069 123.317 77.691 123.253 77.7674C123.22 77.803 123.182 77.8413 123.152 77.8795C123.113 77.9151 123.078 77.9483 123.039 77.9788C123.001 78.0119 122.958 78.0451 122.917 78.0705C122.874 78.0986 122.831 78.124 122.782 78.1521C122.69 78.1979 122.596 78.2361 122.499 78.2642C122.403 78.2896 122.301 78.3126 122.201 78.3228C122.153 78.3228 122.099 78.3278 122.046 78.3278C121.944 78.3278 121.837 78.3177 121.74 78.2947C121.692 78.2845 121.638 78.2744 121.59 78.2591C121.496 78.2259 121.399 78.1877 121.307 78.1393C121.218 78.0909 121.131 78.0323 121.057 77.9686C121.019 77.9381 120.981 77.8999 120.945 77.8667C120.907 77.8311 120.874 77.7929 120.843 77.7546C120.81 77.719 120.78 77.6757 120.752 77.6324C120.726 77.5891 120.698 77.5483 120.673 77.4999C120.624 77.4082 120.586 77.3114 120.558 77.2146C120.533 77.1203 120.512 77.0184 120.5 76.9165C120.5 76.863 120.494 76.8146 120.494 76.7611C120.494 76.7076 120.494 76.6592 120.507 76.6057C120.517 76.5522 120.517 76.5038 120.528 76.4579C120.538 76.4095 120.548 76.356 120.566 76.3076C120.596 76.2108 120.635 76.114 120.683 76.0248C120.731 75.9331 120.79 75.8465 120.854 75.7726C120.884 75.7344 120.922 75.6987 120.956 75.6605C120.991 75.6223 121.029 75.5917 121.068 75.5586C121.103 75.5281 121.147 75.4949 121.19 75.4695C121.233 75.4414 121.277 75.416 121.322 75.3879C121.414 75.3395 121.511 75.3013 121.608 75.2758C121.702 75.2504 121.804 75.2274 121.906 75.2173C121.959 75.2173 122.008 75.2122 122.061 75.2122C122.115 75.2122 122.163 75.2122 122.217 75.2223C122.27 75.2325 122.319 75.2325 122.367 75.2427C122.413 75.2555 122.466 75.2708 122.515 75.2809C122.611 75.3141 122.708 75.3497 122.797 75.3981C122.889 75.4465 122.976 75.5051 123.05 75.5688C123.088 75.6019 123.124 75.6402 123.162 75.6707C123.2 75.7089 123.231 75.7472 123.264 75.7828C123.297 75.821 123.327 75.8643 123.355 75.9076C123.381 75.9484 123.409 75.9917 123.434 76.0401C123.483 76.1318 123.521 76.2261 123.546 76.3229C123.574 76.4197 123.595 76.5216 123.605 76.6235C123.605 76.6719 123.61 76.7229 123.61 76.7764C123.61 76.8299 123.61 76.8783 123.6 76.9318C123.59 76.9853 123.59 77.0337 123.58 77.0821C123.569 77.1305 123.552 77.184 123.541 77.2324Z" fill="#231F20"/>
<path id="Vector_50" d="M121.832 93.4831C121.799 93.5799 121.761 93.6742 121.715 93.7659C121.666 93.8576 121.608 93.9417 121.542 94.0181C121.511 94.0538 121.473 94.092 121.442 94.1302C121.404 94.1659 121.366 94.199 121.33 94.2321C121.292 94.2627 121.249 94.2958 121.205 94.3213C121.164 94.3493 121.121 94.3748 121.073 94.4028C120.981 94.4512 120.884 94.4869 120.79 94.5149C120.693 94.5404 120.591 94.5633 120.489 94.5735C120.441 94.5735 120.387 94.5786 120.334 94.5786C120.235 94.5786 120.128 94.5684 120.031 94.5455C119.982 94.5353 119.929 94.5251 119.88 94.5098C119.784 94.4767 119.689 94.4385 119.598 94.3926C119.506 94.3442 119.422 94.2856 119.345 94.2194C119.31 94.1888 119.272 94.1506 119.233 94.12C119.198 94.0818 119.165 94.0436 119.131 94.0079C119.101 93.9697 119.068 93.9264 119.042 93.8831C119.014 93.8398 118.989 93.799 118.961 93.7506C118.912 93.6589 118.877 93.5621 118.849 93.4678C118.823 93.371 118.8 93.2691 118.79 93.1672C118.79 93.1137 118.785 93.0653 118.785 93.0118C118.785 92.9583 118.785 92.9099 118.795 92.859C118.805 92.8055 118.805 92.7571 118.818 92.7087C118.828 92.6603 118.839 92.6068 118.854 92.5584C118.887 92.4615 118.925 92.3673 118.971 92.2756C119.019 92.1839 119.078 92.0998 119.144 92.0234C119.175 91.9877 119.213 91.9495 119.244 91.9113C119.282 91.8756 119.32 91.8425 119.358 91.8094C119.394 91.7788 119.437 91.7457 119.481 91.7202C119.524 91.6922 119.565 91.6667 119.613 91.6387C119.705 91.5903 119.802 91.5546 119.896 91.5266C119.993 91.5011 120.094 91.4782 120.196 91.468C120.25 91.468 120.298 91.4629 120.352 91.4629C120.405 91.4629 120.454 91.4629 120.507 91.4731C120.558 91.4833 120.607 91.4833 120.655 91.496C120.703 91.5062 120.757 91.5215 120.805 91.5317C120.902 91.5648 120.999 91.603 121.088 91.6489C121.18 91.6973 121.264 91.7559 121.34 91.8221C121.376 91.8527 121.414 91.8909 121.452 91.9215C121.491 91.9597 121.521 91.9979 121.554 92.0335C121.585 92.0718 121.618 92.1151 121.643 92.1584C121.671 92.1991 121.697 92.2425 121.725 92.2909C121.773 92.3826 121.809 92.4794 121.837 92.5736C121.862 92.6704 121.885 92.7723 121.896 92.8743C121.896 92.9227 121.901 92.9762 121.901 93.0297C121.901 93.0832 121.901 93.129 121.891 93.1825C121.88 93.236 121.88 93.2844 121.868 93.3328C121.857 93.3812 121.842 93.4347 121.832 93.4831Z" fill="#231F20"/>
<path id="Vector_51" d="M111.843 74.1271C110.987 74.0354 110.218 74.6621 110.128 75.5155L108.995 86.3122C108.903 87.1656 109.53 87.9375 110.383 88.0267C111.239 88.1184 112.008 87.4917 112.1 86.6382L113.234 75.8416C113.323 74.9882 112.699 74.2188 111.843 74.1271Z" fill="#231F20"/>
<path id="Vector_52" d="M111.522 91.7895C111.512 91.6876 111.496 91.5857 111.463 91.4889C111.438 91.3947 111.395 91.2979 111.351 91.2061C111.331 91.1654 111.303 91.117 111.272 91.0737C111.244 91.0304 111.214 90.987 111.181 90.9514C111.147 90.9132 111.112 90.875 111.079 90.8393C111.04 90.8011 111.005 90.768 110.967 90.7374C110.888 90.6737 110.801 90.6126 110.714 90.5667C110.625 90.5183 110.533 90.475 110.432 90.447C110.383 90.4317 110.337 90.4215 110.284 90.4113C110.182 90.3884 110.08 90.3782 109.978 90.3782C109.93 90.3782 109.876 90.3782 109.823 90.3833C109.721 90.3935 109.619 90.4164 109.525 90.4419C109.428 90.4699 109.331 90.5132 109.242 90.554C109.199 90.5769 109.15 90.6024 109.107 90.6355C109.063 90.661 109.023 90.6941 108.985 90.7272C108.946 90.7578 108.908 90.796 108.872 90.8265C108.834 90.8648 108.804 90.903 108.771 90.9386C108.707 91.0202 108.648 91.0991 108.6 91.1909C108.551 91.2826 108.508 91.3717 108.483 91.4736C108.465 91.522 108.455 91.5704 108.444 91.6239C108.434 91.6723 108.429 91.7258 108.424 91.7742C108.416 91.8227 108.411 91.8762 108.411 91.9297C108.411 91.9755 108.411 92.029 108.416 92.0825C108.429 92.1844 108.45 92.2863 108.478 92.3831C108.503 92.4799 108.546 92.5742 108.59 92.6659C108.61 92.7092 108.635 92.7576 108.669 92.7984C108.697 92.8417 108.727 92.885 108.76 92.9232C108.791 92.9589 108.829 93.0022 108.862 93.0353C108.898 93.071 108.936 93.1041 108.974 93.1372C109.053 93.2009 109.135 93.2595 109.224 93.3079C109.316 93.3563 109.407 93.3971 109.507 93.4251C109.555 93.4404 109.604 93.4506 109.657 93.4633C109.705 93.4735 109.759 93.4786 109.807 93.4837C109.856 93.4888 109.909 93.4939 109.963 93.4939C110.011 93.4939 110.065 93.4939 110.118 93.4888C110.218 93.4786 110.319 93.4633 110.416 93.4302C110.513 93.4022 110.61 93.3614 110.699 93.3181C110.742 93.2977 110.791 93.2697 110.834 93.2366C110.875 93.2111 110.918 93.178 110.956 93.1474C110.995 93.1143 111.035 93.0786 111.068 93.0455C111.107 93.0073 111.137 92.9716 111.17 92.9334C111.234 92.8519 111.293 92.7678 111.341 92.6812C111.389 92.592 111.433 92.5003 111.458 92.3984C111.473 92.35 111.486 92.3016 111.496 92.2481C111.507 92.1997 111.512 92.1487 111.517 92.1003C111.522 92.0519 111.527 91.9984 111.527 91.9449C111.527 91.8965 111.527 91.843 111.522 91.7895Z" fill="#231F20"/>
<path id="Vector_53" d="M120.026 121.691C119.993 121.594 119.954 121.497 119.914 121.408C119.886 121.365 119.865 121.316 119.832 121.273C119.807 121.23 119.773 121.189 119.743 121.151C119.71 121.112 119.677 121.074 119.641 121.039C119.603 121 119.565 120.97 119.529 120.937C119.447 120.873 119.368 120.814 119.277 120.766C119.185 120.718 119.091 120.674 118.994 120.649C118.945 120.631 118.897 120.621 118.844 120.611C118.742 120.59 118.64 120.577 118.54 120.577C118.487 120.577 118.439 120.577 118.385 120.582C118.283 120.595 118.181 120.616 118.084 120.644C117.988 120.669 117.893 120.712 117.802 120.756C117.758 120.776 117.71 120.804 117.669 120.835C117.626 120.863 117.583 120.893 117.544 120.926C117.509 120.957 117.465 120.995 117.427 121.028C117.391 121.064 117.358 121.102 117.325 121.14C117.262 121.219 117.203 121.301 117.155 121.39C117.106 121.482 117.065 121.573 117.037 121.673C117.022 121.721 117.012 121.77 116.999 121.823C116.989 121.872 116.979 121.925 116.974 121.973C116.93 122.379 117.053 122.801 117.315 123.117C117.348 123.156 117.379 123.191 117.417 123.229C117.455 123.268 117.491 123.298 117.529 123.331C117.603 123.395 117.69 123.454 117.781 123.502C117.87 123.55 117.962 123.594 118.064 123.619C118.112 123.634 118.161 123.645 118.214 123.657C118.26 123.668 118.314 123.673 118.362 123.678C118.411 123.683 118.464 123.688 118.518 123.688C118.571 123.688 118.619 123.688 118.673 123.683C118.775 123.673 118.877 123.652 118.971 123.624C119.068 123.599 119.165 123.556 119.256 123.512C119.297 123.492 119.345 123.464 119.389 123.433C119.432 123.405 119.475 123.375 119.511 123.342C119.832 123.084 120.041 122.7 120.084 122.289C120.089 122.236 120.089 122.187 120.089 122.134C120.089 122.086 120.089 122.032 120.084 121.979C120.074 121.877 120.056 121.775 120.026 121.68V121.691Z" fill="#231F20"/>
<path id="Vector_54" d="M93.1819 102.324C94.0379 102.413 94.8072 101.789 94.8964 100.933C94.9881 100.08 94.3614 99.3078 93.508 99.2186L89.3656 98.7855C88.5096 98.6938 87.7402 99.3205 87.6511 100.174C87.5594 101.03 88.1835 101.799 89.0395 101.891L93.1819 102.324Z" fill="#231F20"/>
<path id="Vector_55" d="M105.81 51.3618C105.734 51.265 105.645 51.1783 105.543 51.1095C105.441 51.0357 105.339 50.9771 105.227 50.9236C105.056 50.8421 104.911 50.7682 104.799 50.6917C104.687 50.6179 104.608 50.5491 104.554 50.4803C104.506 50.409 104.485 50.33 104.491 50.2383C104.496 50.1491 104.544 50.0778 104.623 50.0192C104.705 49.9606 104.812 49.9402 104.954 49.9555C105.061 49.9657 105.158 49.9988 105.237 50.0523C105.318 50.1058 105.387 50.1695 105.446 50.2434C105.504 50.3198 105.553 50.4039 105.591 50.4956L106.195 50.2383C106.146 50.1058 106.073 49.9759 105.976 49.8485C105.879 49.7211 105.752 49.609 105.596 49.5173C105.441 49.4256 105.25 49.3619 105.018 49.3415C104.789 49.3186 104.598 49.3415 104.409 49.4001C104.223 49.4587 104.073 49.5606 103.95 49.6931C103.833 49.8332 103.762 49.9988 103.742 50.2001C103.726 50.3733 103.742 50.516 103.79 50.6459C103.843 50.7733 103.912 50.8803 104.004 50.9771C104.093 51.0662 104.19 51.1478 104.292 51.2115C104.399 51.2751 104.491 51.3286 104.569 51.3669C104.725 51.4458 104.852 51.5172 104.954 51.5809C105.056 51.6445 105.135 51.7133 105.183 51.7898C105.232 51.8636 105.255 51.9553 105.237 52.0674C105.222 52.1948 105.168 52.2916 105.066 52.3553C104.964 52.419 104.847 52.447 104.697 52.4292C104.575 52.419 104.457 52.3757 104.355 52.312C104.254 52.2483 104.164 52.1617 104.083 52.0496C104.004 51.9375 103.933 51.8203 103.874 51.6751L103.319 51.9859C103.377 52.1617 103.474 52.3273 103.596 52.4827C103.721 52.6381 103.874 52.7706 104.052 52.8725C104.233 52.9744 104.432 53.0381 104.643 53.061C104.804 53.0763 104.964 53.0712 105.115 53.033C105.265 53.0024 105.408 52.9438 105.538 52.8623C105.665 52.7833 105.772 52.6763 105.853 52.5464C105.932 52.419 105.986 52.2687 106.001 52.098C106.019 51.9426 106.006 51.8101 105.971 51.6879C105.932 51.563 105.874 51.456 105.8 51.3618H105.81Z" fill="#231F20"/>
<path id="Vector_56" d="M108.572 49.7083C108.299 49.6828 108.044 49.6981 107.802 49.7618C107.563 49.828 107.349 49.935 107.155 50.0777C106.969 50.228 106.814 50.4088 106.697 50.6228C106.58 50.8368 106.511 51.0839 106.478 51.3565C106.445 51.6291 106.468 51.8839 106.536 52.1208C106.605 52.3552 106.717 52.5641 106.873 52.7501C107.028 52.9309 107.214 53.0812 107.441 53.1933C107.665 53.3054 107.909 53.3768 108.182 53.4073C108.455 53.4405 108.664 53.4226 108.839 53.3819C109.015 53.3335 109.188 53.2621 109.341 53.1628L109.428 52.345C109.341 52.424 109.242 52.4928 109.122 52.559C109.005 52.6227 108.883 52.6711 108.743 52.6966C108.605 52.7297 108.455 52.7348 108.284 52.7118C108.08 52.6915 107.899 52.6278 107.734 52.5157C107.573 52.4036 107.446 52.2533 107.354 52.0724C107.262 51.889 107.237 51.675 107.257 51.4406C107.28 51.2062 107.359 51.0024 107.481 50.8419C107.606 50.6814 107.759 50.5642 107.943 50.4904C108.123 50.4139 108.317 50.3885 108.518 50.4088C108.689 50.4267 108.834 50.4623 108.962 50.5209C109.092 50.5795 109.204 50.6509 109.306 50.7349C109.407 50.8215 109.486 50.9107 109.555 51.0075L109.642 50.1897C109.507 50.0624 109.359 49.9554 109.193 49.8687C109.028 49.7898 108.814 49.7312 108.557 49.7032L108.572 49.7083Z" fill="#231F20"/>
<path id="Vector_57" d="M109.578 53.4817L110.396 53.5683L110.849 52.799L112.067 52.9264L112.355 53.7772L113.18 53.8613L111.774 49.9075L109.573 53.4817H109.578ZM111.965 52.3404L111.079 52.2487L111.629 51.2755L111.96 52.3455L111.965 52.3404Z" fill="#231F20"/>
<path id="Vector_58" d="M116.243 52.8187L113.965 50.1692L113.57 53.9039L114.276 53.9727L114.505 51.7716L116.78 54.4186L117.178 50.6863L116.477 50.6125L116.243 52.8187Z" fill="#231F20"/>
<path id="Vector_59" d="M120.245 53.2369L117.967 50.5925L117.572 54.3222L118.278 54.3961L118.507 52.195L120.79 54.8393L121.18 51.1046L120.479 51.0358L120.245 53.2369Z" fill="#231F20"/>
<path id="Vector_60" d="M121.575 54.7451L121.949 51.1887L122.688 51.2677L122.313 54.8216L121.575 54.7451Z" fill="#231F20"/>
<path id="Vector_61" d="M125.753 53.8202L123.473 51.1682L123.083 54.903L123.781 54.9743L124.018 52.7706L126.293 55.4227L126.683 51.6879L125.984 51.6115L125.753 53.8202Z" fill="#231F20"/>
<path id="Vector_62" d="M128.95 54.1822L129.971 54.2892C129.928 54.3962 129.875 54.4931 129.806 54.572C129.735 54.6536 129.661 54.7325 129.569 54.7911C129.48 54.8497 129.373 54.8981 129.253 54.9261C129.136 54.9516 129.003 54.9567 128.858 54.9414C128.639 54.921 128.448 54.8446 128.282 54.7274C128.117 54.6102 127.992 54.4497 127.913 54.2587C127.834 54.06 127.801 53.8409 127.826 53.6014C127.854 53.3594 127.928 53.1454 128.053 52.9747C128.175 52.804 128.331 52.6817 128.517 52.6053C128.703 52.5263 128.901 52.5008 129.115 52.5212C129.34 52.5416 129.526 52.6129 129.676 52.725C129.826 52.8371 129.933 52.9747 130.002 53.1403L130.659 52.8473C130.57 52.6715 130.455 52.5161 130.318 52.376C130.178 52.2435 130.017 52.1314 129.831 52.0397C129.645 51.948 129.426 51.8945 129.184 51.869C128.912 51.841 128.649 51.8589 128.41 51.9225C128.17 51.9862 127.951 52.0881 127.763 52.2333C127.577 52.376 127.416 52.5594 127.299 52.7785C127.174 52.9976 127.1 53.2422 127.075 53.5148C127.047 53.7874 127.062 54.0447 127.133 54.2842C127.202 54.5262 127.314 54.7376 127.465 54.921C127.62 55.1019 127.806 55.2522 128.03 55.3694C128.254 55.4866 128.502 55.5554 128.774 55.5885C129.067 55.6216 129.329 55.5885 129.569 55.5146C129.811 55.4331 130.012 55.3057 130.191 55.1401C130.361 54.9745 130.499 54.7707 130.596 54.5364C130.692 54.2994 130.751 54.0498 130.771 53.7772L129.019 53.5963L128.96 54.1721L128.95 54.1822Z" fill="#231F20"/>
<path id="Vector_63" d="M131.5 55.0711C131.38 55.0584 131.273 55.0864 131.189 55.1552C131.103 55.224 131.049 55.3208 131.039 55.4329C131.029 55.5399 131.054 55.6418 131.131 55.7335C131.199 55.8226 131.296 55.871 131.413 55.8863C131.531 55.9042 131.638 55.871 131.724 55.7972C131.808 55.7207 131.857 55.6316 131.867 55.5246C131.877 55.4074 131.852 55.3055 131.783 55.2189C131.711 55.1348 131.617 55.0813 131.492 55.0711H131.5Z" fill="#231F20"/>
<path id="Vector_64" d="M133.097 55.2369C132.98 55.2241 132.873 55.2522 132.787 55.3209C132.702 55.3897 132.649 55.4865 132.636 55.5986C132.626 55.7056 132.654 55.8075 132.728 55.8992C132.797 55.9884 132.894 56.0368 133.011 56.0521C133.128 56.0699 133.235 56.0368 133.322 55.9629C133.406 55.8865 133.454 55.7973 133.467 55.6903C133.477 55.5732 133.449 55.4712 133.38 55.3846C133.311 55.3006 133.215 55.2471 133.092 55.2369H133.097Z" fill="#231F20"/>
<path id="Vector_65" d="M134.983 55.5553C134.914 55.4712 134.817 55.4177 134.695 55.4075C134.572 55.3948 134.47 55.4228 134.384 55.4916C134.3 55.5604 134.246 55.6572 134.236 55.7693C134.223 55.8763 134.251 55.9782 134.325 56.0699C134.397 56.1591 134.491 56.2075 134.608 56.2253C134.728 56.2406 134.835 56.2075 134.919 56.1336C135.005 56.0597 135.054 55.968 135.064 55.861C135.074 55.7438 135.046 55.6419 134.977 55.5553H134.983Z" fill="#231F20"/>
<path id="Vector_66" d="M142.592 68.2803C142.465 68.2803 142.332 68.2752 142.197 68.2599L93.7117 63.1597C91.6584 62.9482 90.168 61.1038 90.382 59.0504C90.4839 58.0569 90.968 57.1652 91.7501 56.5334C92.5246 55.9042 93.4977 55.6137 94.4913 55.7207L142.977 60.821C145.03 61.035 146.521 62.8769 146.307 64.9302C146.105 66.8486 144.48 68.2803 142.587 68.2803H142.592ZM93.8289 62.1024L142.314 67.2001C143.779 67.3555 145.099 66.2881 145.254 64.8232C145.41 63.3584 144.34 62.0387 142.878 61.8884L94.3894 56.7907C93.6837 56.7168 92.9831 56.9232 92.4278 57.3741C91.8724 57.8225 91.5259 58.4645 91.4495 59.1676C91.2941 60.6325 92.3641 61.9521 93.8289 62.1024Z" fill="#231F20"/>
<path id="Vector_67" d="M123.878 60.9639L94.2722 57.8533C93.3908 57.7642 92.6036 58.3985 92.5093 59.2825C92.4125 60.164 93.0545 60.9486 93.9359 61.0454L123.541 64.156L123.878 60.969V60.9639Z" fill="#FFDB58"/>
<path id="Vector_68" d="M36.9338 209.77H1.64218C21.5006 191.955 35.7645 178.603 38.6458 175.525C41.0813 172.924 42.5359 170.023 42.5359 170.023C42.648 169.796 43.6085 168.066 44.118 165.906C45.0963 161.753 43.9881 158.306 45.2924 149.864C46.528 141.895 49.4934 135.401 55.4675 122.421C61.6887 108.911 65.2425 101.386 69.4384 101.686C72.4242 101.9 74.7221 106.015 75.5399 108.147C76.4595 110.537 76.1487 113.331 75.4915 118.824C74.8469 124.207 74.3476 128.273 74.1132 130.166C73.3438 133.098 73.0713 135.658 72.9923 137.6C72.9541 138.471 72.842 141.739 73.6215 145.989C74.0699 148.442 74.6329 150.21 75.2367 152.103C77.02 157.677 78.0747 158.691 78.7524 161.246C78.7524 161.246 78.7524 167.473 77.2824 173.452C76.1666 177.999 62.751 195.656 36.9338 209.778V209.77Z" fill="white"/>
<path id="Vector_69" d="M1.64217 211.411C1.1887 211.411 0.732683 211.225 0.406592 210.851C-0.192089 210.168 -0.120757 209.136 0.561995 208.538C13.4145 197.277 22.996 188.669 29.0312 182.945C35.7059 176.441 39.0508 173.175 41.0813 169.269C42.9308 165.705 42.9359 163.555 42.9461 159.996C42.9512 157.436 42.9639 154.256 43.6798 149.612C44.9561 141.345 48.1635 134.378 53.9873 121.739C60.5397 107.501 64.1369 99.6617 69.5658 100.051C74.1998 100.383 76.8009 106.828 77.0862 107.559C78.1639 110.377 77.8021 113.449 77.1321 119.018C76.4875 124.404 75.9882 128.472 75.7538 130.363C75.6418 131.262 74.8189 131.896 73.9272 131.789C73.0279 131.677 72.3885 130.859 72.5006 129.963C72.735 128.07 73.2317 124.009 73.8788 118.628C74.531 113.197 74.7858 110.713 74.0291 108.736C73.1935 106.571 71.1911 103.455 69.3365 103.328C69.2983 103.328 69.255 103.328 69.2193 103.328C66.0858 103.328 62.0581 112.076 56.9756 123.117C51.0907 135.893 48.1406 142.308 46.9331 150.122C46.2554 154.519 46.2452 157.561 46.2376 160.006C46.2274 163.642 46.2223 166.515 44.0059 170.788C41.7335 175.164 38.2611 178.553 31.3393 185.296C31.3393 185.296 31.3011 185.327 31.296 185.334C25.2302 191.084 15.6233 199.726 2.73253 211.011C2.42173 211.284 2.03704 211.419 1.65236 211.419L1.64217 211.411Z" fill="#231F20"/>
<path id="Vector_70" d="M77.2824 175.088C77.0633 175.088 76.8391 175.045 76.6251 174.95C75.7971 174.586 75.4175 173.613 75.7869 172.785C76.9716 170.087 77.5702 167.338 77.5601 164.625C77.5448 160.605 76.2073 157.762 74.7934 154.753C74.2304 153.556 73.6495 152.323 73.1476 150.998C70.8319 144.879 70.6179 137.738 72.5209 129.769C72.7298 128.887 73.6164 128.342 74.4979 128.556C75.3793 128.765 75.9245 129.652 75.7105 130.533C73.9629 137.85 74.1361 144.344 76.2149 149.836C76.6684 151.039 77.1983 152.167 77.7588 153.36C79.2644 156.559 80.821 159.869 80.8362 164.615C80.8464 167.794 80.1586 170.984 78.7854 174.104C78.5129 174.718 77.9142 175.083 77.2824 175.083V175.088Z" fill="#231F20"/>
</g>
</svg>
