<svg width="40" height="38" viewBox="0 0 40 38" fill="none" xmlns="http://www.w3.org/2000/svg">
<rect width="40" height="38" rx="3" fill="#FFDB58"/>
<path d="M11.75 19.4993C11.5511 19.4993 11.3604 19.4203 11.2197 19.2797C11.0791 19.139 11 18.9483 11 18.7493C11 18.5504 11.0791 18.3597 11.2197 18.219C11.3604 18.0784 11.5511 17.9993 11.75 17.9993L21 17.9993V12.7493C21.0002 12.6011 21.0442 12.4562 21.1267 12.333C21.2091 12.2098 21.3262 12.1138 21.4631 12.0571C21.6001 12.0003 21.7508 11.9855 21.8962 12.0144C22.0416 12.0433 22.1752 12.1146 22.28 12.2193L28.28 18.2193C28.4205 18.36 28.4994 18.5506 28.4994 18.7493C28.4994 18.9481 28.4205 19.1387 28.28 19.2793L22.28 25.2793C22.1752 25.3841 22.0416 25.4554 21.8962 25.4843C21.7508 25.5132 21.6001 25.4983 21.4631 25.4416C21.3262 25.3849 21.2091 25.2889 21.1267 25.1657C21.0442 25.0425 21.0002 24.8976 21 24.7493L21 19.4993L11.75 19.4993Z" fill="#0D0D0D"/>
</svg>
