<svg width="21" height="21" viewBox="0 0 21 21" fill="none" xmlns="http://www.w3.org/2000/svg">
<rect width="21" height="21" rx="2" fill="#FFDB58"/>
<path d="M5 9.44444C5 7.34944 5 6.30167 5.71622 5.65111C6.43244 5.00056 7.58439 5 9.88889 5H11.1111C13.4156 5 14.5682 5 15.2838 5.65111C15.9994 6.30222 16 7.34944 16 9.44444V11.6667C16 13.7617 16 14.8094 15.2838 15.46C14.5676 16.1106 13.4156 16.1111 11.1111 16.1111H9.88889C7.58439 16.1111 6.43183 16.1111 5.71622 15.46C5.00061 14.8089 5 13.7617 5 11.6667V9.44444Z" stroke="#0D0D0D" stroke-width="0.73"/>
<path d="M8.0556 9.44443H12.9445M8.0556 11.6666H11.1112" stroke="#0D0D0D" stroke-width="0.73" stroke-linecap="round"/>
</svg>
