<svg width="174" height="174" viewBox="0 0 174 174" fill="none" xmlns="http://www.w3.org/2000/svg">
<circle cx="87" cy="87" r="87" fill="white"/>
<path d="M90.0014 119.598C89.2724 120.122 88.3975 120.403 87.5 120.403C86.6025 120.403 85.7276 120.122 84.9986 119.598C63.4284 104.224 40.5361 72.5987 63.6786 49.7466C70.0319 43.4968 78.588 39.9961 87.5 40C96.4336 40 105.005 43.5064 111.321 49.7421C134.464 72.5942 111.572 104.215 90.0014 119.598Z" stroke="#0D0D0D" stroke-width="6.23101" stroke-linecap="round" stroke-linejoin="round"/>
<path d="M68.6563 118.725C61.7633 120.278 57.3501 122.659 57.3501 125.335C57.3501 130.009 70.8498 133.8 87.5001 133.8C104.15 133.8 117.65 130.009 117.65 125.335C117.65 122.659 113.237 120.278 106.344 118.725" stroke="#0D0D0D" stroke-width="6.23101" stroke-linecap="round" stroke-linejoin="round"/>
<path d="M93.1967 54.2767L96.2421 55.4324L99.2875 56.5881C100.182 56.9275 100.631 57.9253 100.289 58.8133C99.9461 59.7014 98.9513 60.1568 98.0633 59.8143L96.6357 59.2726L95.2532 62.9015L100.488 64.8879C101.382 65.2273 101.831 66.2251 101.488 67.1131C101.146 68.0012 100.151 68.4566 99.2632 68.1141L92.411 65.5139L85.5617 62.9201C84.6671 62.5807 84.2182 61.5829 84.5607 60.6949C84.9031 59.8068 85.8979 59.3514 86.786 59.6939L92.0203 61.6802L93.4029 58.0513L91.9687 57.5125C91.0741 57.173 90.6253 56.1752 90.9678 55.2872C91.3102 54.3992 92.305 53.9438 93.193 54.2862L93.1967 54.2767ZM82.4437 70.8498L84.6503 65.0349C84.6789 65.0457 84.7104 65.0631 84.7455 65.071L86.2682 65.6488L91.5977 67.6713L96.9273 69.6937L98.45 70.2715L98.5451 70.3077L91.6472 88.4852C91.4596 88.9802 91.1763 89.4334 90.8133 89.8188C90.4504 90.2041 90.0149 90.5141 89.532 90.731L83.7029 93.353L81.6444 98.7777C81.3049 99.6723 80.3071 100.121 79.4191 99.7787C78.5311 99.4363 78.0757 98.4415 78.4181 97.5534L80.4767 92.1287L77.8546 86.2997C77.4147 85.3216 77.3827 84.2153 77.7619 83.216L79.3256 79.0951L84.7503 81.1537C85.3404 81.3776 86.01 81.0764 86.2339 80.4863C86.4578 79.8963 86.1566 79.2267 85.5665 79.0028L80.1418 76.9443L81.637 73.0042L87.0617 75.0628C87.6518 75.2867 88.3213 74.9855 88.5452 74.3955C88.7691 73.8054 88.4679 73.1358 87.8779 72.9119L82.4532 70.8534L82.4437 70.8498Z" fill="#0D0D0D"/>
</svg>
